<svg width="18" height="20" viewBox="0 0 18 20" fill="none" xmlns="http://www.w3.org/2000/svg">
<path fill-rule="evenodd" clip-rule="evenodd" d="M0.5 8.3178C0.5 3.71789 4.34388 0 8.9934 0C13.6561 0 17.5 3.71789 17.5 8.3178C17.5 10.6357 16.657 12.7876 15.2695 14.6116C13.7388 16.6235 11.8522 18.3765 9.7285 19.7524C9.2425 20.0704 8.8039 20.0944 8.2704 19.7524C6.13474 18.3765 4.24809 16.6235 2.7305 14.6116C1.34198 12.7876 0.5 10.6357 0.5 8.3178ZM6.19423 8.5768C6.19423 10.1177 7.4517 11.3297 8.9934 11.3297C10.5362 11.3297 11.8058 10.1177 11.8058 8.5768C11.8058 7.0478 10.5362 5.77683 8.9934 5.77683C7.4517 5.77683 6.19423 7.0478 6.19423 8.5768Z" fill="#FACD49"/>
</svg>
