<svg width="32" height="32" viewBox="0 0 32 32" fill="none" xmlns="http://www.w3.org/2000/svg">
<path d="M16 32C24.8366 32 32 24.8366 32 16C32 7.16344 24.8366 0 16 0C7.16344 0 0 7.16344 0 16C0 24.8366 7.16344 32 16 32Z" fill="#5D50C6"/>
<path d="M25.8006 11.4988C25.115 11.8028 24.3774 12.0084 23.6039 12.1003C24.3937 11.6271 24.9998 10.8784 25.2858 9.98483C24.5468 10.4232 23.728 10.7412 22.8572 10.9126C22.1596 10.1697 21.1656 9.70532 20.065 9.70532C17.9532 9.70532 16.2405 11.418 16.2405 13.5298C16.2405 13.8295 16.2745 14.1213 16.3401 14.4014C13.1616 14.242 10.3434 12.7195 8.45699 10.405C8.12785 10.9697 7.93904 11.6271 7.93904 12.3279C7.93904 13.6544 8.61471 14.8255 9.64035 15.5112C9.01373 15.4915 8.42362 15.3195 7.90824 15.0323C7.90795 15.0485 7.90795 15.0648 7.90795 15.0808C7.90795 16.9338 9.22679 18.4794 10.976 18.8305C10.6554 18.9183 10.3169 18.9648 9.96863 18.9648C9.72163 18.9648 9.48234 18.9412 9.24903 18.8967C9.73561 20.4157 11.1477 21.5215 12.8216 21.5526C11.5125 22.5785 9.86367 23.1897 8.07138 23.1897C7.76335 23.1897 7.45817 23.1718 7.15955 23.1361C8.85116 24.2216 10.8619 24.8545 13.0216 24.8545C20.0561 24.8545 23.9031 19.027 23.9031 13.9727C23.9031 13.807 23.8994 13.6419 23.892 13.4781C24.6398 12.9391 25.2881 12.2657 25.8006 11.4988Z" fill="#F1F2F2"/>
</svg>
